<svg  viewBox="0 0 112 109" fill="none" xmlns="http://www.w3.org/2000/svg">
  <path
    d="M32.7873 84.5478C31.3787 83.8986 31.179 82.9184 30.7348 82.1483C21.0188 65.3812 11.358 48.5799 1.57107 31.8522C0.372669 29.805 0.422602 28.8878 2.6039 27.6657C12.5301 22.0968 22.3513 16.3414 32.7611 10.3336C32.7611 14.2468 32.8583 17.6974 32.7216 21.1376C32.6481 23.0088 33.1842 24.1126 34.8977 25.0744C43.6649 29.9916 52.3691 35.0217 61.0365 40.1149C62.4846 40.9664 63.4964 40.9349 64.9313 40.0965C74.6 34.454 84.3449 28.943 94.0241 23.3241C96.1423 22.0942 98.1186 20.7959 100.736 23.4713C100.736 18.633 100.692 14.4334 100.762 10.239C100.786 8.83032 100.195 8.48867 98.9176 8.49393C91.5432 8.53072 84.1688 8.53335 76.7971 8.48867C75.5487 8.48079 74.6342 9.1089 73.6565 9.67393C66.2953 13.9209 58.8973 18.1074 51.6122 22.4832C49.8435 23.5475 48.5269 23.5738 46.8922 22.4437C45.1918 21.269 43.3575 20.2914 41.071 18.9221C46.9947 15.4688 52.6372 12.1785 58.7054 8.63847C53.9039 5.82906 49.4414 3.21675 44.9606 0.593934C45.4441 -0.286471 46.1458 0.0814597 46.682 0.0814597C66.5239 0.057807 86.3606 0.10774 106.195 -1.06339e-05C108.573 -0.013151 109.091 0.633355 109.065 2.92241C108.941 14.3388 109.007 25.7604 109.007 37.7391C106.552 36.3147 104.281 35.3003 102.376 33.8207C99.0963 31.2793 96.3026 31.3766 92.7258 33.6446C85.1149 38.4671 77.1992 42.8113 69.336 47.2212C67.6593 48.1621 67.0785 49.2028 67.0942 51.1082C67.1862 62.2196 67.0837 73.3338 67.1809 84.4453C67.2046 86.9787 67.1152 89.1811 63.7539 90.0404C67.9142 92.453 71.7039 94.5818 75.4094 96.8472C76.5789 97.562 77.0336 97.1126 77.5671 96.1823C81.2753 89.7067 84.9888 83.2364 88.7338 76.7818C89.2489 75.8935 89.1254 74.9868 89.1254 74.0644C89.1254 65.9647 89.2857 57.857 89.0439 49.7652C88.9493 46.5616 89.8533 44.7193 92.7994 43.2791C97.6719 40.8955 97.572 40.6931 97.572 46.1569V61.0107C102.292 58.3406 106.618 55.8939 111.051 53.3841C111.514 54.5982 110.841 55.1133 110.528 55.6573C100.765 72.6373 90.9834 89.6068 81.1623 106.553C80.5946 107.533 80.4264 109.404 78.3371 108.182C68.064 102.182 57.754 96.248 47.1918 90.1377C50.5268 88.1982 53.5334 86.3638 56.6266 84.6923C58.1693 83.8592 58.8237 82.8579 58.8132 81.034C58.7501 70.9606 58.7737 60.8872 58.8946 50.8138C58.9183 48.9321 58.0983 48.0885 56.6082 47.2344C46.8029 41.6287 37.0632 35.9047 27.2579 30.2938C25.3683 29.2137 23.5628 28.2754 24.5404 24.8143C19.986 27.3924 16.0912 29.579 12.2148 31.7971C11.1084 32.4304 12.0729 33.1032 12.3567 33.5999C15.9992 39.994 19.7179 46.3435 23.342 52.7454C23.9018 53.7362 24.7165 54.2224 25.6127 54.7375C33.0712 59.0213 40.4902 63.376 48.0013 67.5678C49.8646 68.6085 50.7082 69.7675 50.4822 71.9409C50.2693 73.9908 50.4375 76.0827 50.4375 78.6819C44.4166 75.247 38.7504 72.0145 32.7795 68.6085V84.553L32.7873 84.5478Z"
    fill="white"/>
</svg>